HIERARCHY
ROOT Hips
{
    OFFSET   0.000000   0.000000   0.000000
    CHANNELS 6 Xposition Yposition Zposition Zrotation Xrotation Yrotation
    JOINT Chest
    {
        OFFSET   0.000000   8.007230   0.000000
        CHANNELS 3 Zrotation Xrotation Yrotation
        JOINT Chest2
        {
            OFFSET   0.000000  22.077100   0.000000
            CHANNELS 3 Zrotation Xrotation Yrotation
            JOINT Neck
            {
                OFFSET   0.000000  23.254800   0.000000
                CHANNELS 3 Zrotation Xrotation Yrotation
                JOINT Head
                {
                    OFFSET   0.000010  14.370000   1.956600
                    CHANNELS 3 Zrotation Xrotation Yrotation
                    End Site
                    {
                        OFFSET   0.000000  19.566000   0.000000
                    }
                }
            }
            JOINT LeftCollar
            {
                OFFSET   3.911900  19.017000  -0.467062
                CHANNELS 3 Zrotation Xrotation Yrotation
                JOINT LeftShoulder
                {
                    OFFSET  10.383700   0.000000   0.000000
                    CHANNELS 3 Zrotation Xrotation Yrotation
                    JOINT LeftElbow
                    {
                        OFFSET  26.662100   0.001193   0.000835
                        CHANNELS 3 Zrotation Xrotation Yrotation
                        JOINT LeftWrist
                        {
                            OFFSET  28.869000  -0.000058  -0.000075
                            CHANNELS 3 Zrotation Xrotation Yrotation
                            JOINT LeftFinger0
                            {
                                OFFSET   2.044660  -2.323460   3.252850
                                CHANNELS 3 Zrotation Xrotation Yrotation
                                JOINT LeftFinger01
                                {
                                    OFFSET   3.088130   0.000000   0.000000
                                    CHANNELS 3 Zrotation Xrotation Yrotation
                                    JOINT LeftFinger02
                                    {
                                        OFFSET   2.639450   0.000000   0.000000
                                        CHANNELS 3 Zrotation Xrotation Yrotation
                                        End Site
                                        {
                                            OFFSET   2.582190   0.000000   0.000000
                                        }
                                    }
                                }
                            }
                            JOINT LeftFinger1
                            {
                                OFFSET   8.364480   0.000000   3.252850
                                CHANNELS 3 Zrotation Xrotation Yrotation
                                JOINT LeftFinger11
                                {
                                    OFFSET   4.646920   0.000000   0.000000
                                    CHANNELS 3 Zrotation Xrotation Yrotation
                                    JOINT LeftFinger12
                                    {
                                        OFFSET   2.323460   0.000000   0.000000
                                        CHANNELS 3 Zrotation Xrotation Yrotation
                                        End Site
                                        {
                                            OFFSET   2.273050   0.000000   0.000000
                                        }
                                    }
                                }
                            }
                            JOINT LeftFinger2
                            {
                                OFFSET   8.364490   0.000016   1.078090
                                CHANNELS 3 Zrotation Xrotation Yrotation
                                JOINT LeftFinger21
                                {
                                    OFFSET   5.111620   0.000000   0.000000
                                    CHANNELS 3 Zrotation Xrotation Yrotation
                                    JOINT LeftFinger22
                                    {
                                        OFFSET   2.788150   0.000012   0.000000
                                        CHANNELS 3 Zrotation Xrotation Yrotation
                                        End Site
                                        {
                                            OFFSET   2.727660   0.000000   0.000000
                                        }
                                    }
                                }
                            }
                            JOINT LeftFinger3
                            {
                                OFFSET   7.899780   0.000014  -1.078090
                                CHANNELS 3 Zrotation Xrotation Yrotation
                                JOINT LeftFinger31
                                {
                                    OFFSET   4.646930   0.000000   0.000000
                                    CHANNELS 3 Zrotation Xrotation Yrotation
                                    JOINT LeftFinger32
                                    {
                                        OFFSET   2.323470   0.000000   0.000000
                                        CHANNELS 3 Zrotation Xrotation Yrotation
                                        End Site
                                        {
                                            OFFSET   2.273050   0.000000   0.000000
                                        }
                                    }
                                }
                            }
                            JOINT LeftFinger4
                            {
                                OFFSET   7.435090   0.000000  -3.252850
                                CHANNELS 3 Zrotation Xrotation Yrotation
                                JOINT LeftFinger41
                                {
                                    OFFSET   3.717550   0.000000   0.000000
                                    CHANNELS 3 Zrotation Xrotation Yrotation
                                    JOINT LeftFinger42
                                    {
                                        OFFSET   1.858770   0.000000   0.000000
                                        CHANNELS 3 Zrotation Xrotation Yrotation
                                        End Site
                                        {
                                            OFFSET   1.818440   0.000000   0.000000
                                        }
                                    }
                                }
                            }
                        }
                    }
                }
            }
            JOINT RightCollar
            {
                OFFSET  -3.911900  19.017000  -0.467063
                CHANNELS 3 Zrotation Xrotation Yrotation
                JOINT RightShoulder
                {
                    OFFSET -10.383700   0.000023   0.000000
                    CHANNELS 3 Zrotation Xrotation Yrotation
                    JOINT RightElbow
                    {
                        OFFSET -26.662100   0.001246   0.001011
                        CHANNELS 3 Zrotation Xrotation Yrotation
                        JOINT RightWrist
                        {
                            OFFSET -28.869000  -0.000026  -0.000078
                            CHANNELS 3 Zrotation Xrotation Yrotation
                            JOINT RightFinger0
                            {
                                OFFSET  -2.044660  -2.323490   3.252850
                                CHANNELS 3 Zrotation Xrotation Yrotation
                                JOINT RightFinger01
                                {
                                    OFFSET  -3.088130   0.000000   0.000000
                                    CHANNELS 3 Zrotation Xrotation Yrotation
                                    JOINT RightFinger02
                                    {
                                        OFFSET  -2.639460   0.000000   0.000000
                                        CHANNELS 3 Zrotation Xrotation Yrotation
                                        End Site
                                        {
                                            OFFSET  -2.582190   0.000000   0.000000
                                        }
                                    }
                                }
                            }
                            JOINT RightFinger1
                            {
                                OFFSET  -8.364480   0.000000   3.252850
                                CHANNELS 3 Zrotation Xrotation Yrotation
                                JOINT RightFinger11
                                {
                                    OFFSET  -4.646920   0.000000   0.000000
                                    CHANNELS 3 Zrotation Xrotation Yrotation
                                    JOINT RightFinger12
                                    {
                                        OFFSET  -2.323470   0.000000   0.000000
                                        CHANNELS 3 Zrotation Xrotation Yrotation
                                        End Site
                                        {
                                            OFFSET  -2.273050   0.000000   0.000000
                                        }
                                    }
                                }
                            }
                            JOINT RightFinger2
                            {
                                OFFSET  -8.364480   0.000000   1.078090
                                CHANNELS 3 Zrotation Xrotation Yrotation
                                JOINT RightFinger21
                                {
                                    OFFSET  -5.111620   0.000000   0.000000
                                    CHANNELS 3 Zrotation Xrotation Yrotation
                                    JOINT RightFinger22
                                    {
                                        OFFSET  -2.788160   0.000000   0.000000
                                        CHANNELS 3 Zrotation Xrotation Yrotation
                                        End Site
                                        {
                                            OFFSET  -2.727660   0.000000   0.000000
                                        }
                                    }
                                }
                            }
                            JOINT RightFinger3
                            {
                                OFFSET  -7.899780   0.000000  -1.078090
                                CHANNELS 3 Zrotation Xrotation Yrotation
                                JOINT RightFinger31
                                {
                                    OFFSET  -4.646930   0.000000   0.000000
                                    CHANNELS 3 Zrotation Xrotation Yrotation
                                    JOINT RightFinger32
                                    {
                                        OFFSET  -2.323470   0.000000   0.000000
                                        CHANNELS 3 Zrotation Xrotation Yrotation
                                        End Site
                                        {
                                            OFFSET  -2.273050   0.000000   0.000000
                                        }
                                    }
                                }
                            }
                            JOINT RightFinger4
                            {
                                OFFSET  -7.435090   0.000000  -3.252850
                                CHANNELS 3 Zrotation Xrotation Yrotation
                                JOINT RightFinger41
                                {
                                    OFFSET  -3.717550   0.000000   0.000000
                                    CHANNELS 3 Zrotation Xrotation Yrotation
                                    JOINT RightFinger42
                                    {
                                        OFFSET  -1.858760   0.000000   0.000000
                                        CHANNELS 3 Zrotation Xrotation Yrotation
                                        End Site
                                        {
                                            OFFSET  -1.818440   0.000000   0.000000
                                        }
                                    }
                                }
                            }
                        }
                    }
                }
            }
        }
    }
    JOINT LeftHip
    {
        OFFSET   9.783010   0.000000   0.000000
        CHANNELS 3 Zrotation Xrotation Yrotation
        JOINT LeftKnee
        {
            OFFSET   0.000073 -41.789100   0.001749
            CHANNELS 3 Zrotation Xrotation Yrotation
            JOINT LeftAnkle
            {
                OFFSET   0.000111 -41.133200  -0.000179
                CHANNELS 3 Zrotation Xrotation Yrotation
                JOINT LeftToe
                {
                    OFFSET   0.000000  -6.358960  14.674500
                    CHANNELS 3 Zrotation Xrotation Yrotation
                    End Site
                    {
                        OFFSET   0.000000   0.000000   3.913200
                    }
                }
            }
        }
    }
    JOINT RightHip
    {
        OFFSET  -9.783010   0.000000   0.000000
        CHANNELS 3 Zrotation Xrotation Yrotation
        JOINT RightKnee
        {
            OFFSET   0.000424 -41.789200   0.005205
            CHANNELS 3 Zrotation Xrotation Yrotation
            JOINT RightAnkle
            {
                OFFSET   0.000000 -41.133200  -0.000155
                CHANNELS 3 Zrotation Xrotation Yrotation
                JOINT RightToe
                {
                    OFFSET   0.000000  -6.358960  14.674500
                    CHANNELS 3 Zrotation Xrotation Yrotation
                    End Site
                    {
                        OFFSET   0.000000   0.000000   3.913200
                    }
                }
            }
        }
    }
}
MOTION
Frames: 4
Frame Time:   0.016667
  1.268420  89.571100  -2.951130   0.892730 -13.723200   9.520960  -3.425870  10.452500   2.091890  -7.433000  20.748400   4.952720  -5.887800   2.446700   0.252509  -9.720330   4.805420   7.592680  -3.805680  -0.260162   9.978990 -71.992400   7.710950 -13.206900  -0.586225  -0.539737 -13.625200  10.637500   0.125135  -3.117460  43.368300  38.599700 -60.203100 -32.412100   0.003522   0.004050 -11.206100   0.004243   0.009263 -32.802500  -0.937968   1.454910 -26.848100  -0.002287   0.005209 -18.793700  -0.001226   0.003284 -29.222300  -3.743430   6.662880 -44.160100   0.000210   0.000768 -29.410600  -0.000097   0.002346 -27.902500  -3.751970   7.053720 -32.876400   0.006688  -0.004744 -21.895600   0.004637  -0.004040 -33.790200  -6.112730   9.034140 -51.410400  -0.001344   0.002756 -34.239300  -0.003497  -0.000822  -3.914000  -2.212480   3.095550  28.309400  -6.924280  50.622700 -21.436500 -10.479800  85.897000  22.300900   1.993190 -22.052600 -36.937600  40.954100  78.719200  41.892700   0.005945  -0.005234  16.532500   0.002067  -0.001866  86.452500   3.234730  -0.636730  70.686100  -0.094755  -0.225487  53.032100  -0.170777  -0.111178  89.000000  -0.000520  -0.005852  98.570100   0.025250   0.007336  73.927600   0.007171  -0.017796  88.996300  -5.001230  -0.087605 106.316000   0.022065   0.004098  79.680700   0.006617  -0.015177  88.985400 -10.002100  -0.172224 109.997000  -0.008768   0.004877  79.993800   0.003606   0.000995   1.461640  14.067200  -0.742411   0.277246   0.460288   9.243740  -2.068350  -1.469550  -0.617237  -0.000000   0.000000  -0.000000  -1.415260  14.568600  -7.188090   1.114890   4.373850 -19.164600   1.129010  -3.431360  -4.360380   0.000000   0.000000   0.000000
  1.247680  89.571600  -2.964480   0.793839 -13.817400   9.099810  -3.393690  10.464100   2.014150  -7.353180  20.779100   4.788370  -5.842370   2.372600   0.242980  -9.642160   4.662100   7.582410  -3.819630  -0.239415  10.008600 -72.059100   7.621770 -13.154700  -0.558250  -0.501439 -13.487400  10.661400   0.125435  -3.105080  43.372000  38.621800 -60.238800 -32.420600   0.003523   0.004031 -11.210300   0.004333   0.009258 -32.810400  -0.936724   1.452560 -26.854500  -0.002327   0.005119 -18.798200  -0.001224   0.003253 -29.212400  -3.743210   6.665780 -44.145300   0.000119   0.000836 -29.400800  -0.000203   0.002274 -27.902500  -3.756670   7.054720 -32.886700   0.006624  -0.004688 -21.902500   0.004617  -0.003985 -33.793200  -6.115150   9.036350 -51.415900  -0.001460   0.002801 -34.243000  -0.003540  -0.000848  -3.941280  -2.163420   3.165050  27.633000  -6.996460  51.318100 -22.137500  -9.852020  84.296100  21.434500   1.599800 -22.686900 -37.132500  41.854300  79.093200  41.337700   0.006500  -0.005623  16.216300   0.002330  -0.001866  82.672800   0.481674  -1.910000  67.645000  -0.362864  -0.605540  51.045500  -0.511336  -0.228417  89.000000  -0.000497  -0.005895  97.952500   0.027025   0.007280  73.464400   0.007570  -0.018711  88.996300  -5.001260  -0.087596 105.555000   0.025009   0.004140  79.200900   0.006680  -0.017749  88.985400 -10.002100  -0.172158 109.997000  -0.008783   0.004906  79.993700   0.003637   0.000966   1.475020  14.172200  -0.781474   0.276489   0.480317   9.445900  -2.020070  -1.545170  -0.372772  -0.000000   0.000000  -0.000000  -1.386630  14.565400  -7.177430   1.067730   4.426740 -18.954800   1.128240  -3.418600  -4.166770   0.000000   0.000000   0.000000
  1.222240  89.571900  -2.982920   0.685607 -13.921200   8.647890  -3.355520  10.492700   1.937810  -7.262870  20.842900   4.629620  -5.802880   2.273930   0.231209  -9.573520   4.470130   7.608470  -3.841890  -0.251342  10.005400 -72.122600   7.562500 -13.096000  -0.535164  -0.505617 -13.348500  10.672900   0.135066  -3.091950  43.387400  38.653600 -60.278100 -32.439800   0.003514   0.004006 -11.219900   0.004429   0.009255 -32.814700  -0.944377   1.464240 -26.857900  -0.002365   0.005030 -18.800100  -0.001219   0.003219 -29.200900  -3.742980   6.669930 -44.128300   0.000027   0.000902 -29.389500  -0.000284   0.002199 -27.898200  -3.766420   7.071080 -32.881700   0.006561  -0.004632 -21.899200   0.004594  -0.003926 -33.799600  -6.117430   9.040190 -51.425000  -0.001576   0.002851 -34.249100  -0.003583  -0.000871  -3.979210  -2.200830   3.185790  26.930800  -7.101160  52.323300 -22.613400  -9.074490  82.280300  20.246500   1.877370 -23.162500 -37.392200  42.457500  79.525900  41.122600   0.006844  -0.005923  16.079500   0.002579  -0.001866  71.084700   0.714290  -0.161324  58.075100  -0.434395  -0.652841  43.662000  -0.571739  -0.226598  89.000000  -0.000478  -0.005934  97.316400   0.022672   0.007243  72.987300   0.007955  -0.013311  88.996300  -5.001290  -0.087587 104.703000   0.023417   0.004572  78.563300   0.006767  -0.016127  88.985400 -10.002000  -0.172098 109.997000  -0.008806   0.004931  79.993700   0.003661   0.000928   1.492950  14.277800  -0.771112   0.276596   0.524759   9.613770  -1.976290  -1.636210  -0.117761   0.000000   0.000000  -0.000000  -1.348370  14.555500  -7.169400   1.011210   4.498790 -18.706800   1.126330  -3.409040  -3.980760  -0.000000   0.000000  -0.000000
  1.192330  89.573000  -3.006410   0.563653 -14.030900   8.145360  -3.318060  10.526600   1.883490  -7.177820  20.915900   4.511780  -5.768330   2.166930   0.218896  -9.512970   4.261310   7.667840  -3.865660  -0.272168   9.983200 -72.167100   7.517800 -13.024300  -0.520726  -0.509789 -13.213500  10.676900   0.151160  -3.073900  43.412800  38.704600 -60.344500 -32.453300   0.003500   0.003981 -11.226600   0.004526   0.009249 -32.816700  -0.952030   1.475920 -26.860300  -0.002401   0.004940 -18.801400  -0.001213   0.003184 -29.188000  -3.742750   6.674200 -44.109200  -0.000066   0.000970 -29.376700  -0.000359   0.002124 -27.894300  -3.773250   7.086580 -32.876700   0.006499  -0.004575 -21.895900   0.004570  -0.003868 -33.811600  -6.118770   9.042810 -51.444200  -0.001691   0.002904 -34.261900  -0.003628  -0.000893  -4.023900  -2.281890   3.188920  26.410500  -7.296230  53.646200 -22.911300  -8.248720  79.810200  19.315700   2.609540 -23.606800 -37.709100  42.797800  80.003000  41.015900   0.006971  -0.006052  15.969000   0.002709  -0.001870  55.826000   2.004110   3.769740  45.452000  -0.444614  -0.659599  33.531200  -0.580369  -0.213848  89.000000  -0.000458  -0.005968  96.666900   0.018318   0.007111  72.500200   0.008159  -0.007911  88.996200  -5.001310  -0.087577 103.755000   0.020604   0.004965  77.816500   0.006820  -0.013136  88.985400 -10.001900  -0.172037 109.997000  -0.008826   0.004956  79.993600   0.003679   0.000888   1.518460  14.389000  -0.712029   0.275656   0.574661   9.769250  -1.934290  -1.731510   0.148751   0.000000   0.000000   0.000000  -1.306350  14.533600  -7.147500   0.949673   4.587740 -18.428000   1.124740  -3.403950  -3.791960  -0.000000   0.000000   0.000000
